# xmcd CD database file
#
# Track frame offsets:
#	150
#	19587
#	32380
#
# Disc length: 644 seconds
#
# Revision: 1
# Processed by: cddbd v1.5.2PL0 Copyright (c) Steve Scherf et al.
# Submitted via: CDex 1.70beta2
#
DISCID=13028203
DTITLE=Perfume - Fan Service -Prima Box- DISC-２　モノクロームエフェクト
DYEAR=2008
DGENRE=Techno
TTITLE0=モノクロームエフェクト
TTITLE1=エレベーター
TTITLE2=おいしいレシピ
EXTD=YEAR: 2008
EXTT0=
EXTT1=
EXTT2=
PLAYORDER=
